# xmcd CD database file
#
# Track frame offsets:
#	150
#	19771
#	34326
#	52261
#	72367
#	90115
#	106732
#	124822
#	142024
#	163064
#	181311
#	196268
#	214286
#	226940
#	241288
#	262317
#
# Disc length: 3715 seconds
#
# Revision: 0
# Processed by: cddbd v1.5.2PL0 Copyright (c) Steve Scherf et al.
# Submitted via: CDex 1.81
#
DISCID=e80e8110
DTITLE=Sergio Mendes - The Very Best Of - CD1
DYEAR=2015
DGENRE=Jazz
TTITLE0=Morning in Rio
TTITLE1=Pais Tropical
TTITLE2=Waters Of March
TTITLE3=Acode
TTITLE4=Magalenha
TTITLE5=Orpheus (Quiet Carnival)
TTITLE6=The Look Of Love
TTITLE7=Emorio
TTITLE8=Caxanga
TTITLE9=Agua De Beber
TTITLE10=Scarborough Fair
TTITLE11=Funky Bahia
TTITLE12=Wichita Lineman
TTITLE13=The Fool on The Hill
TTITLE14=Dreamer
TTITLE15=For Waht It's Worth
EXTD=YEAR: 2015
EXTT0=
EXTT1=
EXTT2=
EXTT3=
EXTT4=
EXTT5=
EXTT6=
EXTT7=
EXTT8=
EXTT9=
EXTT10=
EXTT11=
EXTT12=
EXTT13=
EXTT14=
EXTT15=
PLAYORDER=
